<?xml version="1.0" standalone="no"?>
<!DOCTYPE svg PUBLIC "-//W3C//DTD SVG 20010904//EN"
 "http://www.w3.org/TR/2001/REC-SVG-20010904/DTD/svg10.dtd">
<svg version="1.0" xmlns="http://www.w3.org/2000/svg"
 width="512.000000pt" height="512.000000pt" viewBox="0 0 512.000000 512.000000"
 preserveAspectRatio="xMidYMid meet">

<g transform="translate(0.000000,512.000000) scale(0.100000,-0.100000)"
fill="#000000" stroke="none">
<path d="M1187 4709 c-57 -13 -134 -56 -183 -101 -41 -38 -114 -162 -114 -194
0 -11 -41 -14 -220 -14 l-221 0 -24 -25 -25 -24 0 -1471 0 -1471 25 -24 24
-25 218 0 218 0 17 -47 c26 -73 71 -137 127 -181 47 -37 143 -82 176 -82 9 0
39 -78 90 -229 42 -126 83 -235 92 -243 12 -10 93 -14 347 -18 l330 -5 12 -60
c21 -103 -42 -95 724 -95 766 0 703 -8 724 95 l12 60 330 5 c254 4 335 8 347
18 9 8 50 116 92 242 76 228 76 228 108 234 107 20 217 112 270 224 l32 67 0
1535 0 1535 -32 67 c-44 93 -100 151 -191 196 l-76 37 -1595 2 c-907 0 -1612
-3 -1634 -8z m3207 -161 c55 -16 138 -99 154 -154 17 -60 17 -2968 0 -3028
-16 -55 -99 -138 -154 -154 -60 -17 -3128 -17 -3188 0 -55 16 -138 99 -154
154 -17 60 -17 2968 0 3028 15 51 99 137 148 153 53 17 3138 17 3194 1z
m-3514 -348 l0 -40 -160 0 -160 0 0 40 0 40 160 0 160 0 0 -40z m0 -240 l0
-40 -160 0 -160 0 0 40 0 40 160 0 160 0 0 -40z m0 -240 l0 -40 -160 0 -160 0
0 40 0 40 160 0 160 0 0 -40z m0 -240 l0 -40 -160 0 -160 0 0 40 0 40 160 0
160 0 0 -40z m0 -240 l0 -40 -160 0 -160 0 0 40 0 40 160 0 160 0 0 -40z m0
-240 l0 -40 -160 0 -160 0 0 40 0 40 160 0 160 0 0 -40z m0 -240 l0 -40 -160
0 -160 0 0 40 0 40 160 0 160 0 0 -40z m0 -240 l0 -40 -160 0 -160 0 0 40 0
40 160 0 160 0 0 -40z m0 -240 l0 -40 -160 0 -160 0 0 40 0 40 160 0 160 0 0
-40z m0 -240 l0 -40 -160 0 -160 0 0 40 0 40 160 0 160 0 0 -40z m0 -240 l0
-40 -160 0 -160 0 0 40 0 40 160 0 160 0 0 -40z m0 -240 l0 -40 -160 0 -160 0
0 40 0 40 160 0 160 0 0 -40z m617 -625 c19 -59 42 -107 54 -117 19 -16 47
-18 245 -18 207 0 224 -1 224 -17 0 -10 3 -28 6 -41 l6 -22 -267 2 -268 3 -53
158 -53 158 36 -3 36 -3 34 -100z m2459 68 l-13 -38 -1143 0 -1143 0 -13 38
-13 37 1169 0 1169 0 -13 -37z m200 -120 l-53 -158 -268 -3 -267 -2 6 22 c3
13 6 31 6 41 0 16 17 17 223 17 182 0 226 3 244 15 14 10 33 50 54 112 17 54
34 101 36 106 2 4 19 7 38 7 l33 0 -52 -157z m-739 -110 c-3 -16 -13 -70 -23
-120 l-18 -93 -576 0 -576 0 -18 93 c-10 50 -20 104 -23 120 l-5 27 622 0 623
0 -6 -27z"/>
<path d="M2645 4474 c-709 -76 -1277 -596 -1417 -1297 -32 -161 -32 -433 0
-594 64 -321 214 -604 439 -829 230 -230 502 -376 833 -445 141 -30 438 -33
575 -6 345 69 623 214 856 449 232 234 380 517 446 853 27 139 24 425 -5 572
-129 648 -623 1144 -1267 1273 -98 20 -368 34 -460 24z m325 -164 c393 -49
742 -251 981 -569 127 -169 213 -361 261 -579 29 -131 31 -415 5 -542 -76
-368 -267 -673 -555 -890 -170 -128 -361 -214 -580 -262 -140 -31 -424 -31
-564 0 -444 97 -808 376 -1002 766 -97 195 -142 367 -152 581 -23 480 195 936
583 1223 294 217 666 316 1023 272z"/>
<path d="M2625 4229 c-161 -21 -352 -85 -497 -168 -617 -353 -858 -1112 -558
-1758 126 -271 353 -504 626 -641 84 -42 242 -96 349 -118 121 -25 383 -26
505 -1 422 84 777 353 968 733 42 84 96 242 118 349 25 122 26 383 1 507 -89
449 -388 818 -806 999 -214 92 -470 127 -706 98z m435 -178 c352 -80 651 -315
814 -639 84 -168 121 -329 121 -532 0 -157 -12 -236 -56 -372 -58 -178 -154
-334 -293 -474 -169 -169 -371 -279 -606 -330 -106 -23 -352 -26 -455 -5 -245
48 -457 161 -631 335 -170 170 -279 371 -330 606 -26 118 -26 362 0 480 78
363 314 668 644 834 93 47 225 90 322 106 41 6 82 13 90 15 42 11 302 -6 380
-24z"/>
<path d="M2620 3985 c-351 -56 -660 -285 -824 -612 -212 -424 -126 -943 214
-1283 439 -438 1141 -438 1580 0 438 439 438 1141 0 1580 -257 256 -611 371
-970 315z m187 -182 c43 -46 81 -124 89 -184 8 -57 -16 -153 -57 -228 -48 -89
-69 -109 -129 -125 -30 -8 -62 -17 -71 -21 -13 -5 -21 4 -34 44 -51 153 -194
282 -362 325 l-46 12 49 36 c107 78 249 136 398 163 114 21 124 20 163 -22z
m269 -4 c80 -25 210 -88 272 -132 48 -35 52 -55 28 -168 -33 -156 -122 -257
-259 -294 l-63 -17 -50 31 c-27 18 -49 35 -49 39 0 4 17 41 37 82 20 41 44
111 53 155 23 112 15 177 -40 308 -9 21 -11 21 71 -4z m-905 -333 c130 -28
224 -99 273 -206 40 -86 42 -126 11 -182 -15 -27 -28 -48 -30 -48 -1 0 -28 15
-58 34 -135 81 -316 105 -436 58 -30 -12 -57 -20 -59 -18 -16 17 84 246 144
328 40 54 49 56 155 34z m1410 -28 c84 -116 156 -309 173 -465 l7 -62 -40 -40
c-108 -108 -249 -127 -396 -53 -100 50 -123 70 -131 115 -3 23 -13 59 -20 80
-12 34 -12 38 4 43 168 55 304 201 344 372 7 28 16 52 20 52 4 0 22 -19 39
-42z m-707 -330 c86 -26 166 -136 166 -228 0 -124 -116 -240 -240 -240 -124 0
-240 116 -240 240 0 63 23 114 75 165 70 71 145 90 239 63z m-708 -132 c60
-16 154 -65 202 -104 25 -21 36 -41 47 -87 8 -33 14 -63 15 -67 0 -3 -17 -12
-37 -18 -159 -51 -291 -190 -335 -354 -7 -25 -15 -46 -18 -46 -11 0 -71 98
-109 180 -48 101 -77 208 -86 318 l-7 80 53 40 c92 68 172 86 275 58z m1073
-294 c74 -39 194 -72 260 -72 57 0 147 23 201 50 22 11 40 19 40 16 0 -2 -9
-35 -21 -72 -26 -84 -89 -212 -137 -278 l-36 -49 -65 6 c-194 17 -322 110
-368 267 -14 50 -14 56 0 80 9 14 24 40 34 58 9 18 19 31 22 30 3 -2 35 -18
70 -36z m-670 -126 c6 -8 24 -19 40 -26 l28 -11 -44 -87 c-80 -161 -93 -291
-40 -421 14 -33 21 -61 16 -61 -51 0 -283 110 -345 164 l-38 33 11 79 c25 170
106 277 246 325 63 22 111 24 126 5z m421 -123 c62 -138 193 -249 335 -284 28
-6 53 -15 58 -19 12 -10 -72 -66 -175 -115 -107 -52 -210 -80 -325 -90 l-81
-7 -46 58 c-87 110 -97 224 -32 359 19 39 45 86 59 105 24 34 40 41 167 69 3
0 21 -34 40 -76z"/>
<path d="M1225 4375 c-50 -49 -15 -135 55 -135 41 0 80 39 80 80 0 41 -39 80
-80 80 -19 0 -40 -9 -55 -25z"/>
<path d="M4265 4375 c-16 -15 -25 -36 -25 -55 0 -19 9 -40 25 -55 15 -16 36
-25 55 -25 19 0 40 9 55 25 16 15 25 36 25 55 0 19 -9 40 -25 55 -15 16 -36
25 -55 25 -19 0 -40 -9 -55 -25z"/>
<path d="M1225 1495 c-16 -15 -25 -36 -25 -55 0 -19 9 -40 25 -55 15 -16 36
-25 55 -25 19 0 40 9 55 25 16 15 25 36 25 55 0 19 -9 40 -25 55 -15 16 -36
25 -55 25 -19 0 -40 -9 -55 -25z"/>
<path d="M4265 1495 c-50 -49 -15 -135 55 -135 41 0 80 39 80 80 0 41 -39 80
-80 80 -19 0 -40 -9 -55 -25z"/>
</g>
</svg>
