<?xml version="1.0" standalone="no"?>
<!DOCTYPE svg PUBLIC "-//W3C//DTD SVG 20010904//EN"
 "http://www.w3.org/TR/2001/REC-SVG-20010904/DTD/svg10.dtd">
<svg version="1.0" xmlns="http://www.w3.org/2000/svg"
 width="512.000000pt" height="512.000000pt" viewBox="0 0 512.000000 512.000000"
 preserveAspectRatio="xMidYMid meet">

<g transform="translate(0.000000,512.000000) scale(0.100000,-0.100000)"
fill="#000000" stroke="none">
<path d="M1237 5109 c-25 -15 -47 -70 -47 -119 l0 -40 -524 0 c-347 0 -534 -4
-553 -11 -38 -14 -83 -57 -99 -96 -12 -27 -14 -407 -14 -2367 0 -1625 3 -2343
11 -2363 14 -38 57 -83 96 -99 48 -21 4858 -21 4906 0 39 16 82 61 96 99 8 20
11 738 11 2363 0 2542 4 2370 -56 2426 -43 40 -75 48 -183 48 l-99 0 -4 62
c-4 51 -9 65 -32 85 -26 22 -32 23 -217 23 -248 0 -259 -5 -259 -116 l0 -54
-85 0 -85 0 0 40 c0 51 -22 105 -48 119 -14 8 -240 11 -727 11 l-707 0 -29
-29 c-25 -26 -29 -37 -29 -85 l0 -56 -85 0 -85 0 0 56 c0 48 -4 59 -29 85
l-29 29 -192 0 c-243 0 -259 -7 -260 -112 l0 -58 -84 0 -83 0 -6 62 c-5 51
-10 67 -32 85 -25 22 -33 23 -223 23 -121 0 -204 -5 -215 -11z m301 -371 l-3
-213 -82 -3 -83 -3 0 216 0 215 85 0 85 0 -2 -212z m682 82 l0 -130 -85 0 -85
0 0 130 0 130 85 0 85 0 0 -130z m1705 -85 l0 -210 -597 -3 -598 -2 0 215 0
215 598 -2 597 -3 0 -210z m685 85 l0 -130 -85 0 -85 0 0 130 0 130 85 0 85 0
0 -130z m-3420 -160 c0 -65 5 -142 11 -170 14 -65 61 -115 124 -131 l45 -11 0
-101 c0 -90 2 -103 22 -124 30 -33 87 -31 118 2 22 23 25 37 28 125 l4 100 38
10 c47 13 85 43 107 83 13 25 18 66 21 185 l4 152 84 0 84 0 0 -60 c0 -73 17
-117 59 -153 43 -36 90 -47 201 -47 99 1 156 15 192 47 34 30 58 93 58 156 l0
57 85 0 85 0 0 -145 c0 -100 4 -156 14 -178 17 -42 66 -83 114 -97 25 -8 235
-10 662 -8 703 3 664 -1 718 80 26 40 27 47 31 195 l3 153 84 0 84 0 0 -66 c0
-78 23 -127 76 -164 31 -21 50 -24 147 -28 122 -5 178 5 222 40 40 31 65 93
65 161 l0 57 85 0 85 0 0 -1240 0 -1240 -85 0 -85 0 0 188 c0 175 -2 191 -22
232 -27 52 -60 78 -114 90 -51 12 -1557 12 -1608 0 -54 -12 -87 -38 -114 -91
l-22 -44 2 -642 3 -641 31 -39 c62 -78 2 -73 904 -73 902 0 842 -5 904 73 l31
39 3 199 4 199 84 0 84 0 0 -810 0 -810 -2390 0 -2390 0 0 2305 0 2305 510 0
510 0 0 -120z m3420 -2247 c6 -297 -8 -277 195 -281 l145 -4 0 -84 0 -84 -145
0 c-142 0 -147 -1 -170 -25 l-25 -24 0 -231 0 -230 -770 0 -770 0 0 593 c0
327 3 597 7 600 3 4 349 6 767 5 l761 -3 5 -232z"/>
<path d="M390 4597 c-79 -40 -52 -157 37 -157 77 0 109 85 54 141 -32 32 -53
35 -91 16z"/>
<path d="M905 4600 c-32 -12 -47 -36 -48 -74 -1 -48 34 -86 80 -86 85 0 117
117 42 155 -31 17 -45 18 -74 5z"/>
<path d="M1871 4163 c-24 -8 -63 -35 -86 -58 -115 -115 -97 -299 40 -393 l50
-34 5 -293 c5 -277 6 -295 26 -321 11 -15 33 -37 48 -48 27 -20 40 -21 507
-24 535 -3 523 -4 577 66 l27 35 3 296 3 296 52 30 c74 43 111 106 115 199 3
63 0 77 -25 126 -68 130 -209 175 -341 109 l-62 -30 -27 19 c-74 51 -163 56
-249 12 l-59 -29 -59 29 c-41 21 -74 30 -106 30 -53 0 -125 -22 -152 -47 -17
-15 -22 -14 -69 12 -64 35 -153 42 -218 18z m145 -177 c73 -62 -5 -179 -89
-134 -54 28 -63 89 -21 132 33 33 74 34 110 2z m345 -5 c17 -18 29 -40 29 -56
0 -32 -50 -85 -80 -85 -49 0 -89 38 -89 85 0 76 85 110 140 56z m322 18 c27
-12 47 -47 47 -80 0 -30 -53 -79 -85 -79 -35 0 -85 50 -85 85 0 32 49 85 79
85 11 0 31 -5 44 -11z m361 -15 c42 -43 33 -104 -21 -132 -33 -18 -59 -14 -89
12 -39 33 -39 89 0 122 36 32 77 31 110 -2z m-866 -276 l42 -23 0 -262 0 -263
-85 0 -85 0 0 263 0 262 38 21 c47 28 40 28 90 2z m340 0 l42 -23 0 -262 0
-263 -85 0 -85 0 0 263 0 262 38 21 c47 28 40 28 90 2z m340 0 l42 -23 0 -262
0 -263 -85 0 -85 0 0 263 0 262 38 21 c47 28 40 28 90 2z"/>
<path d="M476 3919 c-54 -13 -95 -45 -117 -93 -18 -39 -19 -82 -19 -839 0
-878 -3 -836 63 -894 46 -40 75 -46 224 -41 112 3 122 5 155 30 72 55 68 4 68
911 l0 814 -22 33 c-30 44 -66 69 -114 80 -49 12 -186 11 -238 -1z m204 -934
l0 -765 -85 0 -85 0 0 765 0 765 85 0 85 0 0 -765z"/>
<path d="M1164 3921 c-52 -13 -91 -42 -116 -85 l-23 -41 -3 -765 c-2 -421 0
-788 3 -817 7 -57 34 -104 78 -137 26 -19 42 -21 177 -21 135 0 151 2 177 21
44 33 71 80 78 137 3 29 5 396 3 817 l-3 765 -24 41 c-38 67 -85 87 -211 90
-58 2 -119 0 -136 -5z m206 -936 l0 -765 -90 0 -90 0 0 765 0 765 90 0 90 0 0
-765z"/>
<path d="M3443 3816 l-28 -24 -3 -157 c-4 -152 -4 -156 -27 -165 -79 -30 -138
-129 -139 -230 -1 -191 195 -309 368 -222 l56 29 56 -29 c78 -39 150 -39 228
0 l56 29 56 -29 c85 -42 183 -37 256 14 26 18 27 18 83 -12 91 -48 195 -39
277 23 43 33 86 110 94 169 13 93 -46 208 -129 253 l-36 19 -3 154 -3 154 -28
24 -28 24 -539 0 -539 0 -28 -24z m997 -240 l0 -94 -30 -12 c-16 -7 -34 -18
-41 -26 -9 -11 -17 -9 -47 11 -82 53 -176 56 -263 8 l-49 -26 -52 29 c-75 41
-161 41 -235 0 l-53 -29 -45 24 -45 24 0 92 0 93 430 0 430 0 0 -94z m-914
-256 c58 -23 73 -92 29 -135 -44 -45 -116 -26 -138 37 -10 27 13 77 42 93 32
17 33 17 67 5z m353 -5 c33 -16 41 -33 41 -80 0 -40 -38 -75 -80 -75 -86 0
-112 116 -35 158 27 15 41 15 74 -3z m340 0 c31 -15 54 -65 44 -93 -13 -36
-46 -62 -80 -62 -90 0 -115 126 -32 159 33 13 36 13 68 -4z m366 -15 c47 -47
6 -140 -62 -140 -95 0 -113 129 -23 163 23 9 63 -2 85 -23z"/>
<path d="M1841 2810 c-42 -10 -80 -38 -108 -80 l-23 -33 0 -646 0 -646 23 -40
c14 -26 37 -48 67 -62 44 -23 50 -23 417 -23 291 0 381 3 406 14 43 17 95 78
102 118 3 18 5 317 3 664 l-3 631 -28 36 c-55 73 -49 72 -457 74 -201 1 -380
-2 -399 -7z m719 -760 l0 -600 -340 0 -340 0 0 600 0 600 340 0 340 0 0 -600z"/>
<path d="M2168 2460 c-9 -6 -22 -26 -28 -44 -15 -45 7 -89 50 -104 83 -29 150
77 87 136 -25 23 -79 29 -109 12z"/>
<path d="M2163 2108 c-31 -34 -36 -63 -19 -97 21 -41 74 -58 114 -37 33 17 42
34 42 77 0 68 -92 106 -137 57z"/>
<path d="M2172 1774 c-80 -56 -11 -181 78 -144 36 15 50 37 50 80 0 64 -75
101 -128 64z"/>
<path d="M538 1870 c-124 -31 -212 -161 -194 -284 10 -66 63 -145 120 -180 62
-39 154 -47 223 -21 170 65 218 284 90 415 -57 59 -160 89 -239 70z m120 -193
c50 -46 11 -137 -60 -137 -40 1 -64 17 -78 55 -15 39 4 84 44 101 36 15 62 10
94 -19z"/>
<path d="M1149 1871 c-43 -14 -77 -41 -101 -80 -21 -33 -23 -48 -23 -166 0
-118 2 -134 24 -171 40 -71 77 -84 231 -84 154 0 191 13 231 84 22 37 24 53
24 171 0 118 -2 133 -23 167 -42 68 -80 83 -217 85 -66 1 -132 -1 -146 -6z
m219 -248 l3 -83 -91 0 -90 0 0 78 c0 43 3 82 7 86 4 4 43 5 88 4 l80 -3 3
-82z"/>
<path d="M784 1091 c-92 -42 -107 -91 -102 -351 3 -190 4 -198 28 -233 49 -72
70 -77 317 -77 212 0 221 1 253 22 78 53 90 95 89 313 0 238 -12 278 -99 323
-42 21 -56 22 -245 22 -173 0 -205 -3 -241 -19z m406 -321 l0 -170 -170 0
-170 0 0 170 0 170 170 0 170 0 0 -170z"/>
<path d="M1632 1089 c-23 -12 -52 -35 -65 -53 -21 -30 -22 -41 -25 -261 -3
-227 -3 -231 20 -264 13 -19 36 -44 51 -55 l28 -21 1506 -3 1506 -2 42 25 c29
17 50 39 65 69 20 43 21 57 18 260 l-3 214 -30 38 c-17 20 -46 45 -65 55 -33
18 -92 19 -1520 19 l-1485 0 -43 -21z m2978 -319 l0 -170 -85 0 -85 0 0 39 c0
90 -49 144 -112 122 -45 -16 -57 -39 -58 -103 l0 -58 -85 0 -85 0 0 39 c0 92
-48 143 -116 121 -43 -15 -54 -35 -54 -104 l0 -56 -90 0 -90 0 0 56 c0 69 -11
89 -54 104 -68 22 -116 -29 -116 -121 l0 -39 -85 0 -85 0 0 58 c-1 64 -13 87
-58 103 -63 22 -112 -32 -112 -122 l0 -39 -85 0 -85 0 0 58 c0 50 -4 62 -25
82 -33 31 -87 32 -117 2 -16 -16 -23 -37 -26 -82 l-4 -60 -84 0 -84 0 0 54 c0
72 -29 110 -85 110 -56 0 -85 -38 -85 -110 l0 -54 -84 0 -84 0 -4 60 c-5 75
-29 104 -84 104 -55 0 -84 -38 -84 -110 l0 -54 -84 0 -84 0 -4 60 c-3 45 -10
66 -26 82 -30 30 -84 29 -117 -2 -21 -20 -25 -32 -25 -82 l0 -58 -85 0 -85 0
0 170 0 170 1450 0 1450 0 0 -170z"/>
<path d="M372 490 c-44 -41 -39 -102 12 -135 52 -34 126 9 126 72 0 70 -87
110 -138 63z"/>
<path d="M3277 2456 c-9 -7 -22 -27 -28 -44 -28 -80 74 -139 139 -79 50 46 12
137 -56 137 -20 0 -45 -7 -55 -14z"/>
<path d="M4295 2445 c-33 -32 -34 -84 -2 -112 66 -62 165 -2 137 83 -20 59
-90 74 -135 29z"/>
<path d="M3779 2274 c-23 -25 -24 -31 -27 -198 -4 -209 4 -250 53 -273 33 -16
37 -16 70 0 49 23 57 64 53 273 -3 167 -4 173 -27 198 -18 19 -35 26 -61 26
-26 0 -43 -7 -61 -26z"/>
<path d="M3273 2108 c-30 -34 -34 -55 -19 -93 19 -45 65 -58 183 -54 80 4 95
7 117 28 35 33 35 83 1 116 -23 24 -30 25 -143 25 -110 0 -120 -2 -139 -22z"/>
<path d="M4125 2105 c-34 -33 -34 -83 1 -116 22 -21 37 -24 117 -28 118 -4
164 9 183 54 15 38 11 59 -19 93 -19 20 -29 22 -139 22 -113 0 -120 -1 -143
-25z"/>
<path d="M3274 1766 c-52 -44 -30 -126 36 -141 80 -18 134 82 75 140 -31 32
-75 32 -111 1z"/>
<path d="M4295 1765 c-41 -40 -33 -105 17 -131 59 -30 122 7 122 73 0 72 -89
109 -139 58z"/>
</g>
</svg>
