<?xml version="1.0" standalone="no"?>
<!DOCTYPE svg PUBLIC "-//W3C//DTD SVG 20010904//EN"
 "http://www.w3.org/TR/2001/REC-SVG-20010904/DTD/svg10.dtd">
<svg version="1.0" xmlns="http://www.w3.org/2000/svg"
 width="512.000000pt" height="512.000000pt" viewBox="0 0 512.000000 512.000000"
 preserveAspectRatio="xMidYMid meet">

<g transform="translate(0.000000,512.000000) scale(0.100000,-0.100000)"
fill="#000000" stroke="none">
<path d="M478 3946 c-57 -20 -85 -42 -116 -88 l-27 -42 -3 -1320 c-2 -949 0
-1332 8 -1359 15 -51 84 -119 136 -135 58 -17 4108 -18 4165 -1 52 16 103 61
128 112 18 38 21 62 21 188 0 160 -7 182 -59 194 -33 7 -85 -15 -95 -40 -3 -9
-6 -72 -6 -139 0 -90 -4 -127 -14 -142 -14 -19 -47 -19 -2056 -19 -2009 0
-2042 0 -2056 19 -12 17 -14 210 -14 1299 0 862 3 1285 10 1298 11 19 44 19
2060 19 2016 0 2049 0 2060 -19 7 -13 10 -342 10 -996 l0 -976 25 -24 c32 -33
78 -33 111 0 l24 24 -2 1010 -3 1009 -30 44 c-17 23 -51 54 -75 68 l-45 25
-2060 2 c-1701 2 -2067 0 -2097 -11z"/>
<path d="M760 3619 c-97 -38 -69 -189 35 -189 51 0 95 44 95 95 0 49 -15 74
-55 91 -39 16 -41 16 -75 3z"/>
<path d="M2773 3615 c-39 -17 -53 -42 -53 -93 0 -51 43 -92 97 -92 99 0 128
142 38 185 -39 18 -41 18 -82 0z"/>
<path d="M1580 3590 c-237 -51 -434 -161 -600 -336 -214 -225 -323 -519 -307
-823 27 -481 292 -854 724 -1017 174 -66 390 -88 581 -60 490 73 845 410 941
894 38 194 36 336 -10 515 -108 426 -483 767 -919 837 -103 16 -313 11 -410
-10z m150 -248 l0 -97 -82 -17 c-114 -23 -263 -99 -351 -179 -136 -123 -210
-259 -252 -461 l-5 -28 -102 0 -101 0 6 59 c8 72 50 207 89 286 144 285 426
491 733 534 28 4 53 6 58 4 4 -2 7 -48 7 -101z m280 86 c76 -14 199 -60 276
-103 257 -144 445 -420 488 -717 l7 -48 -105 0 c-104 0 -106 1 -106 23 0 12
-9 55 -20 95 -75 271 -292 479 -567 545 l-93 22 0 102 0 103 33 -6 c17 -3 57
-10 87 -16z m-25 -375 c129 -40 261 -140 332 -251 35 -55 76 -152 86 -209 l7
-33 -90 0 c-89 0 -90 0 -96 28 -10 40 -52 122 -85 163 -38 48 -126 108 -191
130 l-53 18 -3 89 c-3 103 -11 97 93 65z m-255 -67 l0 -84 -52 -17 c-69 -22
-137 -66 -188 -121 -42 -45 -100 -154 -100 -186 0 -16 -11 -18 -90 -18 -102 0
-101 -1 -76 80 49 158 149 284 289 365 55 32 149 64 190 64 l27 1 0 -84z m169
-261 c121 -42 194 -172 170 -300 -40 -216 -319 -292 -462 -125 -126 148 -62
375 123 431 42 12 125 10 169 -6z m-841 -422 c70 -290 286 -506 573 -577 l94
-23 3 -93 c1 -51 -1 -97 -5 -101 -13 -13 -169 19 -255 52 -239 92 -422 258
-536 484 -39 79 -81 214 -89 286 l-6 59 100 0 100 0 21 -87z m341 40 c33 -128
167 -254 304 -287 27 -6 27 -7 27 -91 0 -46 -3 -86 -7 -88 -15 -9 -118 23
-188 57 -157 77 -296 256 -321 415 l-7 41 90 0 89 0 13 -47z m1004 15 c-10
-58 -51 -155 -86 -210 -84 -131 -220 -228 -366 -262 l-61 -14 0 88 0 88 38 13
c139 45 240 142 288 277 l19 52 87 0 88 0 -7 -32z m371 -15 c-35 -243 -170
-481 -356 -628 -133 -105 -324 -188 -480 -208 l-48 -7 0 103 0 102 81 17 c219
46 421 203 525 410 34 68 74 194 74 235 0 22 2 23 106 23 l105 0 -7 -47z"/>
<path d="M3334 3441 c-57 -35 -64 -65 -64 -298 0 -186 2 -211 19 -239 34 -55
232 -294 259 -312 23 -15 59 -17 322 -17 226 0 303 3 327 14 37 15 254 277
278 335 18 42 21 378 5 438 -6 20 -26 50 -46 67 l-35 31 -517 0 c-488 0 -519
-1 -548 -19z m986 -304 l0 -163 -96 -117 -95 -117 -252 0 -252 0 -97 122 -98
122 0 158 0 158 445 0 445 0 0 -163z"/>
<path d="M3613 3219 c-37 -11 -63 -51 -63 -99 0 -46 47 -90 95 -90 72 0 119
86 84 152 -8 16 -69 51 -81 47 -2 0 -18 -5 -35 -10z"/>
<path d="M4095 3222 c-78 -26 -101 -108 -46 -163 39 -38 87 -39 130 -3 25 21
31 33 31 66 0 52 -14 77 -55 94 -19 8 -36 14 -37 13 -2 -1 -12 -4 -23 -7z"/>
<path d="M3815 2967 c-17 -14 -28 -36 -32 -63 -10 -75 63 -129 135 -98 66 27
77 129 17 168 -35 23 -89 20 -120 -7z"/>
<path d="M3353 2153 c-23 -14 -52 -45 -65 -67 -22 -40 -23 -49 -23 -256 0
-211 0 -216 25 -258 15 -27 42 -54 70 -70 l45 -27 470 0 c450 0 472 1 509 20
22 11 54 37 70 58 l31 39 0 238 0 238 -30 38 c-63 77 -41 74 -580 74 l-481 0
-41 -27z m447 -323 l0 -190 -182 2 -183 3 -3 175 c-1 96 0 180 2 187 4 10 48
13 186 13 l180 0 0 -190z m525 0 l0 -185 -182 -3 -183 -2 0 190 0 190 183 -2
182 -3 0 -185z"/>
<path d="M775 1511 c-50 -15 -75 -48 -75 -101 0 -46 47 -90 95 -90 107 0 133
161 30 188 -16 5 -39 6 -50 3z"/>
<path d="M2773 1505 c-39 -16 -53 -42 -53 -93 0 -33 6 -45 31 -66 43 -36 91
-35 130 3 39 40 40 89 2 130 -34 36 -68 44 -110 26z"/>
</g>
</svg>
