<?xml version="1.0" standalone="no"?>
<!DOCTYPE svg PUBLIC "-//W3C//DTD SVG 20010904//EN"
 "http://www.w3.org/TR/2001/REC-SVG-20010904/DTD/svg10.dtd">
<svg version="1.0" xmlns="http://www.w3.org/2000/svg"
 width="512.000000pt" height="512.000000pt" viewBox="0 0 512.000000 512.000000"
 preserveAspectRatio="xMidYMid meet">

<g transform="translate(0.000000,512.000000) scale(0.100000,-0.100000)"
fill="#000000" stroke="none">
<path d="M466 4389 c-62 -15 -153 -68 -197 -116 -22 -24 -55 -74 -72 -111
l-32 -67 0 -1536 0 -1535 37 -76 c45 -91 103 -147 196 -191 l67 -32 543 -3
542 -3 25 25 c33 33 33 79 0 111 l-24 25 -512 0 c-372 0 -523 3 -553 12 -55
16 -138 99 -154 154 -17 60 -17 2968 0 3028 16 55 99 138 154 154 32 9 344 12
1313 12 l1272 0 24 25 c16 15 25 36 25 55 0 19 -9 40 -25 55 l-24 25 -1283 -1
c-733 -1 -1300 -5 -1322 -10z"/>
<path d="M3305 4376 c-33 -33 -33 -79 0 -111 l24 -25 632 0 c467 0 642 -3 673
-12 55 -16 138 -99 154 -154 8 -29 12 -151 12 -418 l0 -376 -135 0 c-131 0
-137 -1 -160 -25 l-25 -24 0 -671 0 -671 25 -24 c23 -24 29 -25 160 -25 l135
0 0 -376 c0 -267 -4 -389 -12 -418 -16 -55 -99 -138 -154 -154 -32 -9 -370
-12 -1433 -12 l-1392 0 -24 -25 c-33 -32 -33 -78 0 -111 l24 -24 1423 2 1423
3 67 32 c93 44 151 100 196 191 l37 76 3 463 3 463 -25 25 c-24 24 -29 25
-161 25 l-135 0 0 80 0 80 135 0 c131 0 137 1 160 25 16 15 25 36 25 55 0 19
-9 40 -25 55 -23 24 -29 25 -160 25 l-135 0 0 80 0 80 135 0 c131 0 137 1 160
25 16 15 25 36 25 55 0 19 -9 40 -25 55 -23 24 -29 25 -160 25 l-135 0 0 80 0
80 135 0 c131 0 137 1 160 25 33 32 33 78 0 110 -23 24 -29 25 -160 25 l-135
0 0 80 0 80 135 0 c132 0 137 1 161 25 l25 25 -3 463 -3 463 -37 76 c-45 91
-103 147 -196 191 l-67 32 -663 3 -662 3 -25 -25z"/>
<path d="M640 4067 c-19 -6 -58 -34 -85 -62 -71 -70 -91 -145 -63 -239 16 -55
99 -138 154 -154 94 -28 169 -8 239 63 102 101 102 229 0 330 -70 71 -152 91
-245 62z m135 -172 c50 -49 15 -135 -55 -135 -41 0 -80 39 -80 80 0 41 39 80
80 80 19 0 40 -9 55 -25z"/>
<path d="M4160 4067 c-49 -16 -133 -102 -148 -153 -28 -94 -8 -169 63 -239 51
-52 102 -75 165 -75 63 0 114 23 165 75 98 97 101 222 8 325 -65 72 -158 97
-253 67z m135 -172 c16 -15 25 -36 25 -55 0 -19 -9 -40 -25 -55 -15 -16 -36
-25 -55 -25 -19 0 -40 9 -55 25 -16 15 -25 36 -25 55 0 19 9 40 25 55 15 16
36 25 55 25 19 0 40 -9 55 -25z"/>
<path d="M1145 3895 c-18 -17 -25 -35 -25 -62 0 -61 -27 -150 -64 -207 -81
-127 -223 -197 -374 -183 -61 6 -65 5 -93 -23 l-29 -28 0 -352 0 -351 25 -24
c32 -33 78 -33 110 0 l25 24 0 294 0 294 61 7 c71 8 166 41 232 79 112 66 219
213 249 345 l13 52 1205 0 1205 0 13 -52 c45 -196 214 -365 410 -410 l52 -13
0 -726 0 -726 -42 -7 c-80 -13 -201 -80 -272 -152 -72 -71 -139 -192 -152
-271 l-7 -43 -1206 0 -1206 0 -13 53 c-30 131 -136 278 -247 343 -68 39 -162
72 -234 80 l-61 7 0 294 0 294 -25 24 c-32 33 -78 33 -110 0 l-25 -24 0 -350
0 -350 24 -27 c22 -26 27 -28 122 -28 115 -1 177 -20 251 -76 97 -73 146 -162
162 -295 14 -117 -145 -105 1363 -105 l1309 0 23 23 c17 17 24 39 29 91 18
192 171 345 362 363 53 5 74 12 92 29 l23 23 0 831 0 831 -23 23 c-18 17 -39
24 -92 29 -191 18 -344 171 -362 363 -5 52 -12 74 -29 91 l-23 23 -1311 0
-1311 0 -24 -25z"/>
<path d="M1660 3104 c-227 -82 -293 -362 -125 -529 54 -54 122 -85 213 -95
116 -13 167 -61 167 -160 0 -97 -58 -155 -155 -155 -90 0 -144 49 -159 145
-14 88 -82 120 -138 64 -23 -23 -25 -31 -20 -82 10 -111 80 -212 182 -262 71
-35 197 -35 270 0 64 31 124 91 155 155 35 73 35 199 0 270 -53 107 -147 170
-278 185 -116 13 -167 61 -167 160 0 97 58 155 155 155 90 0 144 -49 159 -145
14 -88 82 -120 138 -64 23 23 25 31 20 82 -10 111 -81 213 -182 261 -65 31
-172 38 -235 15z"/>
<path d="M2460 3104 c-227 -82 -293 -362 -125 -529 54 -54 122 -85 213 -95
116 -13 167 -61 167 -160 0 -97 -58 -155 -155 -155 -90 0 -144 49 -159 145
-14 88 -82 120 -138 64 -23 -23 -25 -31 -20 -82 10 -111 80 -212 182 -262 71
-35 197 -35 270 0 64 31 124 91 155 155 35 73 35 199 0 270 -53 107 -147 170
-278 185 -116 13 -167 61 -167 160 0 97 58 155 155 155 90 0 144 -49 159 -145
14 -88 82 -120 138 -64 23 23 25 31 20 82 -10 111 -81 213 -182 261 -65 31
-172 38 -235 15z"/>
<path d="M3066 3096 l-26 -25 0 -511 0 -511 26 -25 25 -26 177 4 c169 3 179 5
228 30 75 40 107 70 145 140 l34 63 0 325 0 325 -34 63 c-37 69 -80 109 -151
144 -40 20 -64 23 -222 26 l-177 4 -25 -26z m380 -162 c15 -11 37 -33 48 -48
20 -26 21 -40 21 -326 0 -286 -1 -300 -21 -326 -44 -60 -67 -69 -185 -72
l-109 -4 0 402 0 402 109 -4 c92 -2 114 -6 137 -24z"/>
<path d="M640 1507 c-49 -16 -133 -102 -148 -153 -28 -94 -8 -169 63 -239 101
-102 229 -102 330 0 102 101 102 229 0 330 -70 71 -152 91 -245 62z m135 -172
c16 -15 25 -36 25 -55 0 -19 -9 -40 -25 -55 -15 -16 -36 -25 -55 -25 -19 0
-40 9 -55 25 -16 15 -25 36 -25 55 0 19 9 40 25 55 15 16 36 25 55 25 19 0 40
-9 55 -25z"/>
<path d="M4160 1507 c-49 -16 -133 -102 -148 -153 -28 -94 -8 -169 63 -239 51
-52 102 -75 164 -75 42 0 81 38 81 80 0 19 -9 40 -25 55 -15 16 -36 25 -55 25
-41 0 -80 39 -80 80 0 41 39 80 80 80 41 0 80 -39 80 -80 0 -70 86 -105 135
-55 48 47 26 145 -50 220 -70 71 -152 91 -245 62z"/>
</g>
</svg>
