<?xml version="1.0" standalone="no"?>
<!DOCTYPE svg PUBLIC "-//W3C//DTD SVG 20010904//EN"
 "http://www.w3.org/TR/2001/REC-SVG-20010904/DTD/svg10.dtd">
<svg version="1.0" xmlns="http://www.w3.org/2000/svg"
 width="512.000000pt" height="512.000000pt" viewBox="0 0 512.000000 512.000000"
 preserveAspectRatio="xMidYMid meet">

<g transform="translate(0.000000,512.000000) scale(0.100000,-0.100000)"
fill="#000000" stroke="none">
<path d="M43 4260 c-44 -18 -56 -77 -23 -110 18 -18 33 -20 194 -20 187 0 227
-7 245 -46 7 -17 11 -124 11 -334 l0 -310 -79 0 c-63 0 -84 -4 -102 -19 l-24
-19 -3 -298 c-2 -202 1 -306 8 -325 15 -36 49 -49 130 -49 l70 0 0 -209 0
-209 -85 -3 c-129 -6 -120 20 -120 -354 0 -375 -10 -348 126 -355 l91 -5 22
-60 c50 -137 164 -252 309 -313 52 -21 84 -26 192 -31 l130 -6 5 -147 c4 -124
8 -150 23 -165 16 -17 51 -18 496 -18 455 0 480 1 500 19 19 17 21 31 23 165
l3 146 410 3 410 2 -345 345 -345 345 -852 0 -853 0 0 70 0 70 882 0 882 0
388 -387 388 -388 0 -176 c0 -166 1 -177 21 -195 20 -18 50 -19 778 -22 416
-2 771 0 789 3 66 12 72 28 72 190 l0 145 135 0 c122 0 137 2 155 20 20 20 20
33 20 1093 0 910 -3 1081 -15 1135 -42 179 -186 335 -364 394 -65 22 -75 22
-795 26 l-729 3 -422 -420 -421 -421 -882 0 -882 0 0 70 0 70 852 0 853 0 342
342 c189 189 343 346 343 350 0 5 -538 8 -1195 8 l-1195 0 0 108 c0 139 -11
176 -69 233 -36 37 -57 49 -99 58 -62 13 -367 14 -399 1z m3948 -735 c385 -81
683 -366 786 -753 23 -85 26 -116 26 -252 0 -135 -3 -168 -26 -254 -102 -383
-404 -669 -793 -751 -93 -20 -280 -23 -374 -6 -398 71 -714 362 -820 756 -33
121 -38 330 -12 455 90 434 439 760 877 819 85 12 245 5 336 -14z m-1951
-2435 l0 -100 -95 0 -95 0 0 55 c0 46 -4 60 -25 80 -27 28 -61 31 -90 9 -15
-11 -21 -30 -25 -77 l-5 -62 -70 0 -70 0 -5 63 c-5 68 -23 92 -66 92 -44 0
-67 -32 -72 -99 l-4 -61 -69 0 -69 0 0 100 0 100 380 0 380 0 0 -100z m2625 0
l0 -95 -95 0 -95 0 -5 63 c-5 68 -23 92 -66 92 -44 0 -67 -32 -72 -99 l-4 -61
-69 0 -69 0 0 55 c0 46 -4 60 -25 80 -30 30 -54 31 -89 4 -23 -18 -26 -28 -26
-80 l0 -59 -69 0 -69 0 -4 61 c-5 67 -28 99 -72 99 -43 0 -61 -24 -66 -92 l-5
-63 -70 0 -70 0 -5 62 c-4 47 -10 66 -25 77 -29 22 -63 19 -90 -9 -21 -20 -25
-34 -25 -80 l0 -55 -95 0 -95 0 0 100 0 100 688 -2 687 -3 0 -95z"/>
<path d="M3575 3380 c-179 -47 -285 -108 -416 -239 -82 -83 -144 -167 -171
-233 -5 -11 16 -2 57 26 88 61 163 87 266 93 135 9 245 -25 347 -106 l52 -41
0 260 0 260 -32 -1 c-18 0 -64 -8 -103 -19z"/>
<path d="M3856 3323 c-3 -4 -6 -168 -6 -365 0 -411 -9 -381 98 -327 289 144
267 564 -36 679 -27 10 -52 16 -56 13z"/>
<path d="M4179 3285 c71 -81 112 -198 112 -320 1 -129 -31 -223 -111 -323
l-40 -52 265 0 265 0 -6 33 c-29 167 -63 262 -136 374 -70 107 -157 195 -262
264 -103 68 -133 76 -87 24z"/>
<path d="M3233 2876 c-102 -33 -185 -106 -229 -200 -44 -94 -73 -86 340 -86
l365 0 -9 31 c-29 99 -110 192 -204 235 -72 34 -193 43 -263 20z"/>
<path d="M2905 2403 c19 -136 79 -285 159 -396 24 -34 75 -92 112 -128 67 -64
96 -85 199 -144 l50 -29 -27 34 c-41 52 -84 129 -102 183 -53 158 -13 358 95
481 l41 46 -267 0 -267 0 7 -47z"/>
<path d="M3865 2428 c27 -89 92 -177 166 -224 49 -31 132 -54 194 -54 106 0
231 59 290 136 28 36 75 131 75 152 0 9 -80 12 -366 12 l-365 0 6 -22z"/>
<path d="M3655 2428 c-48 -17 -128 -74 -158 -113 -16 -20 -40 -61 -55 -93 -33
-71 -37 -188 -9 -267 35 -102 128 -193 231 -228 l46 -16 0 365 c0 285 -3 364
-12 363 -7 0 -26 -5 -43 -11z"/>
<path d="M3850 1900 l0 -260 28 0 c56 0 199 42 287 84 160 76 280 185 375 338
27 45 50 86 50 91 0 5 -19 -8 -42 -28 -177 -151 -469 -151 -645 -1 -22 20 -44
36 -47 36 -3 0 -6 -117 -6 -260z"/>
</g>
</svg>
