<?xml version="1.0" standalone="no"?>
<!DOCTYPE svg PUBLIC "-//W3C//DTD SVG 20010904//EN"
 "http://www.w3.org/TR/2001/REC-SVG-20010904/DTD/svg10.dtd">
<svg version="1.0" xmlns="http://www.w3.org/2000/svg"
 width="512.000000pt" height="512.000000pt" viewBox="0 0 512.000000 512.000000"
 preserveAspectRatio="xMidYMid meet">

<g transform="translate(0.000000,512.000000) scale(0.100000,-0.100000)"
fill="#000000" stroke="none">
<path d="M560 4707 c-49 -16 -133 -102 -148 -153 -17 -59 -18 -3608 0 -3666
14 -48 76 -121 118 -138 l30 -12 0 -145 c0 -139 1 -145 25 -168 l24 -25 271 0
271 0 24 25 c24 23 25 29 25 160 l0 135 1360 0 1360 0 0 -135 c0 -131 1 -137
25 -160 l24 -25 271 0 271 0 24 25 c24 23 25 29 25 168 l0 145 30 12 c43 18
105 92 119 142 9 32 11 479 9 1783 l-3 1740 -32 67 c-44 93 -100 151 -191 196
l-76 37 -1910 2 c-1376 1 -1921 -2 -1946 -10z m3834 -159 c55 -16 138 -99 154
-154 9 -32 12 -438 12 -1753 l0 -1712 -25 -24 -24 -25 -1951 0 -1951 0 -24 25
-25 24 0 1791 0 1791 25 24 24 25 1872 0 c1440 0 1881 -3 1913 -12z m-3354
-3908 l0 -80 -160 0 -160 0 0 80 0 80 160 0 160 0 0 -80z m3360 0 l0 -80 -160
0 -160 0 0 80 0 80 160 0 160 0 0 -80z"/>
<path d="M745 4375 c-50 -49 -15 -135 55 -135 41 0 80 39 80 80 0 41 -39 80
-80 80 -19 0 -40 -9 -55 -25z"/>
<path d="M4265 4375 c-16 -15 -25 -36 -25 -55 0 -19 9 -40 25 -55 15 -16 36
-25 55 -25 19 0 40 9 55 25 16 15 25 36 25 55 0 19 -9 40 -25 55 -15 16 -36
25 -55 25 -19 0 -40 -9 -55 -25z"/>
<path d="M825 4135 l-25 -24 0 -1391 0 -1391 25 -24 24 -25 1711 0 1711 0 24
25 25 24 0 1391 0 1391 -25 24 -24 25 -1711 0 -1711 0 -24 -25z m535 -670 l0
-536 25 -24 24 -25 231 0 231 0 24 25 25 24 1 263 c1 161 4 247 9 223 30 -150
119 -280 250 -364 59 -38 166 -81 202 -81 17 0 18 -23 18 -445 l0 -445 -43 0
-43 0 4 58 c19 261 -211 502 -478 502 -267 0 -497 -241 -478 -502 l4 -58 -38
0 -38 0 0 285 c0 318 -4 340 -60 352 l-30 6 0 156 0 156 33 15 c62 29 62 111
0 140 -28 13 -33 20 -33 50 0 30 5 37 33 50 62 29 62 111 0 140 l-33 15 0 213
c0 213 0 213 -25 237 -22 23 -32 25 -120 25 l-95 0 0 40 0 40 200 0 200 0 0
-535z m400 495 l0 -40 -120 0 -120 0 0 40 0 40 120 0 120 0 0 -40z m380 1
c-109 -82 -190 -216 -213 -351 -2 -14 -5 68 -6 183 l-1 207 136 0 136 0 -52
-39z m1140 -41 l0 -80 -168 0 -169 0 -44 48 c-24 26 -62 62 -84 80 l-40 32
253 0 252 0 0 -80z m320 -615 l0 -696 -25 -24 c-15 -16 -36 -25 -55 -25 -19 0
-40 9 -55 25 l-25 24 0 696 0 695 80 0 80 0 0 -695z m560 615 l0 -80 -200 0
-200 0 0 80 0 80 200 0 200 0 0 -80z m-1516 -38 c91 -42 149 -100 194 -190 35
-72 37 -81 37 -172 0 -91 -2 -100 -37 -172 -45 -91 -103 -147 -196 -191 -61
-29 -76 -32 -162 -32 -86 0 -101 3 -160 31 -95 46 -153 101 -197 192 -36 72
-38 81 -38 171 0 87 3 102 32 163 40 85 97 147 172 186 78 42 122 52 213 48
61 -3 92 -11 142 -34z m-1604 -642 l0 -520 -40 0 -40 0 0 520 0 520 40 0 40 0
0 -520z m720 400 l0 -120 -120 0 -120 0 0 120 0 120 120 0 120 0 0 -120z
m1520 0 l0 -40 -125 0 c-112 0 -125 2 -125 18 0 9 -3 27 -6 40 -6 22 -6 22
125 22 l131 0 0 -40z m880 0 l0 -40 -200 0 -200 0 0 40 0 40 200 0 200 0 0
-40z m-880 -320 l0 -120 -168 0 -169 0 33 65 c18 35 38 89 45 120 l12 55 124
0 123 0 0 -120z m880 0 l0 -120 -200 0 -200 0 0 120 0 120 200 0 200 0 0 -120z
m-2400 0 l0 -40 -120 0 -120 0 0 40 0 40 120 0 120 0 0 -40z m0 -240 l0 -40
-120 0 -120 0 0 40 0 40 120 0 120 0 0 -40z m1520 -80 l0 -40 -216 0 c-141 0
-231 -4 -258 -12 -55 -16 -138 -99 -154 -154 -8 -29 -12 -143 -12 -378 l0
-336 -40 0 -40 0 0 443 0 444 53 12 c28 6 75 22 102 35 49 24 57 24 308 25
l257 1 0 -40z m880 -6 c0 -43 -2 -46 -22 -40 -13 3 -103 6 -200 6 l-178 0 0
40 0 40 200 0 200 0 0 -46z m-880 -233 l0 -40 -149 -3 c-163 -3 -178 -8 -225
-72 -20 -26 -21 -43 -24 -297 l-3 -269 -39 0 -40 0 0 335 0 336 25 24 c24 25
24 25 240 25 l215 0 0 -39z m855 14 l25 -24 0 -336 0 -335 -40 0 -39 0 -3 269
c-3 254 -4 271 -24 297 -44 60 -67 69 -185 72 l-109 4 0 39 0 39 175 0 c173 0
176 0 200 -25z m-3005 -455 l0 -240 -85 0 -85 0 0 240 0 240 85 0 85 0 0 -240z
m2180 210 c28 -68 129 -130 210 -130 81 0 182 62 210 130 l12 30 89 0 89 0 0
-240 0 -240 -440 0 -440 0 0 240 0 240 129 0 129 0 12 -30z m-1339 -79 c68
-32 112 -74 147 -138 33 -63 48 -141 38 -197 -7 -34 -9 -36 -46 -36 l-39 0 6
50 c9 78 -12 136 -71 195 -52 52 -103 75 -166 75 -63 0 -114 -23 -166 -75 -59
-59 -80 -117 -71 -195 l6 -50 -39 0 c-37 0 -39 2 -46 36 -28 150 83 314 241
355 49 13 158 2 206 -20z m-76 -236 c50 -49 15 -135 -55 -135 -19 0 -40 9 -55
25 -16 15 -25 36 -25 55 0 19 9 40 25 55 15 16 36 25 55 25 19 0 40 -9 55 -25z
m2265 -535 l0 -240 -1600 0 -1600 0 0 240 0 240 1600 0 1600 0 0 -240z"/>
<path d="M2400 3747 c-49 -16 -133 -102 -148 -153 -28 -94 -8 -169 63 -239
102 -103 243 -101 338 5 90 100 90 220 0 320 -65 72 -158 97 -253 67z m135
-172 c50 -49 15 -135 -55 -135 -41 0 -80 39 -80 80 0 41 39 80 80 80 19 0 40
-9 55 -25z"/>
<path d="M1065 1735 c-16 -15 -25 -36 -25 -55 0 -19 9 -40 25 -55 15 -16 36
-25 55 -25 19 0 40 9 55 25 16 15 25 36 25 55 0 19 -9 40 -25 55 -15 16 -36
25 -55 25 -19 0 -40 -9 -55 -25z"/>
<path d="M3945 1735 c-50 -49 -15 -135 55 -135 41 0 80 39 80 80 0 41 -39 80
-80 80 -19 0 -40 -9 -55 -25z"/>
<path d="M745 1175 c-16 -15 -25 -36 -25 -55 0 -19 9 -40 25 -55 15 -16 36
-25 55 -25 19 0 40 9 55 25 16 15 25 36 25 55 0 19 -9 40 -25 55 -15 16 -36
25 -55 25 -19 0 -40 -9 -55 -25z"/>
<path d="M4265 1175 c-50 -49 -15 -135 55 -135 41 0 80 39 80 80 0 41 -39 80
-80 80 -19 0 -40 -9 -55 -25z"/>
</g>
</svg>
